<mxfile host="app.diagrams.net" modified="2023-03-19T18:13:21.189Z" agent="5.0 (Windows)" etag="Q_N_camPpf2LtO6HprGN" version="21.0.8" type="github">
  <diagram name="Page-1" id="74e2e168-ea6b-b213-b513-2b3c1d86103e">
    <mxGraphModel dx="794" dy="1244" grid="1" gridSize="10" guides="1" tooltips="1" connect="1" arrows="1" fold="1" page="1" pageScale="1" pageWidth="1100" pageHeight="850" background="none" math="0" shadow="0">
      <root>
        <mxCell id="0" />
        <mxCell id="1" parent="0" />
        <mxCell id="Yv0FGjkAjLU4at8jHfub-1" value="PEDIDO" style="rhombus;whiteSpace=wrap;html=1;" vertex="1" parent="1">
          <mxGeometry x="320" y="-360" width="130" height="80" as="geometry" />
        </mxCell>
        <mxCell id="Yv0FGjkAjLU4at8jHfub-2" value="CLIENTE NOVO REALIZA CADASTRO&lt;span style=&quot;white-space: pre;&quot;&gt;&lt;/span&gt;" style="rounded=0;whiteSpace=wrap;html=1;" vertex="1" parent="1">
          <mxGeometry x="200" y="-240" width="120" height="60" as="geometry" />
        </mxCell>
        <mxCell id="Yv0FGjkAjLU4at8jHfub-3" value="BUSCA CLIENTE JÁ CADASTRADO" style="rounded=0;whiteSpace=wrap;html=1;" vertex="1" parent="1">
          <mxGeometry x="440" y="-240" width="120" height="60" as="geometry" />
        </mxCell>
        <mxCell id="Yv0FGjkAjLU4at8jHfub-4" value="" style="endArrow=classic;html=1;rounded=0;exitX=1;exitY=0.5;exitDx=0;exitDy=0;" edge="1" parent="1" source="Yv0FGjkAjLU4at8jHfub-1">
          <mxGeometry width="50" height="50" relative="1" as="geometry">
            <mxPoint x="460" y="-320" as="sourcePoint" />
            <mxPoint x="510" y="-240" as="targetPoint" />
            <Array as="points">
              <mxPoint x="510" y="-320" />
            </Array>
          </mxGeometry>
        </mxCell>
        <mxCell id="Yv0FGjkAjLU4at8jHfub-5" value="" style="endArrow=classic;html=1;rounded=0;exitX=0;exitY=0.5;exitDx=0;exitDy=0;" edge="1" parent="1" source="Yv0FGjkAjLU4at8jHfub-1">
          <mxGeometry width="50" height="50" relative="1" as="geometry">
            <mxPoint x="380" y="-160" as="sourcePoint" />
            <mxPoint x="250" y="-240" as="targetPoint" />
            <Array as="points">
              <mxPoint x="250" y="-320" />
            </Array>
          </mxGeometry>
        </mxCell>
        <mxCell id="Yv0FGjkAjLU4at8jHfub-6" value="&lt;font style=&quot;font-size: 11px;&quot;&gt;PRODUÇÃO DO PEDIDO&lt;/font&gt;" style="rhombus;whiteSpace=wrap;html=1;" vertex="1" parent="1">
          <mxGeometry x="310" y="-160" width="130" height="80" as="geometry" />
        </mxCell>
        <mxCell id="Yv0FGjkAjLU4at8jHfub-7" value="" style="endArrow=classic;html=1;rounded=0;exitX=0.5;exitY=1;exitDx=0;exitDy=0;entryX=1;entryY=0.5;entryDx=0;entryDy=0;" edge="1" parent="1" source="Yv0FGjkAjLU4at8jHfub-3" target="Yv0FGjkAjLU4at8jHfub-6">
          <mxGeometry width="50" height="50" relative="1" as="geometry">
            <mxPoint x="410" y="-140" as="sourcePoint" />
            <mxPoint x="470" y="-60" as="targetPoint" />
            <Array as="points">
              <mxPoint x="500" y="-120" />
            </Array>
          </mxGeometry>
        </mxCell>
        <mxCell id="Yv0FGjkAjLU4at8jHfub-8" value="" style="endArrow=classic;html=1;rounded=0;exitX=0.5;exitY=1;exitDx=0;exitDy=0;entryX=0;entryY=0.5;entryDx=0;entryDy=0;" edge="1" parent="1" target="Yv0FGjkAjLU4at8jHfub-6">
          <mxGeometry width="50" height="50" relative="1" as="geometry">
            <mxPoint x="250" y="-180" as="sourcePoint" />
            <mxPoint x="190" y="-120" as="targetPoint" />
            <Array as="points">
              <mxPoint x="250" y="-120" />
            </Array>
          </mxGeometry>
        </mxCell>
        <mxCell id="Yv0FGjkAjLU4at8jHfub-9" value="" style="endArrow=classic;html=1;rounded=0;exitX=0.5;exitY=1;exitDx=0;exitDy=0;" edge="1" parent="1" source="Yv0FGjkAjLU4at8jHfub-6">
          <mxGeometry width="50" height="50" relative="1" as="geometry">
            <mxPoint x="380" y="-20" as="sourcePoint" />
            <mxPoint x="375" y="-20" as="targetPoint" />
          </mxGeometry>
        </mxCell>
        <mxCell id="Yv0FGjkAjLU4at8jHfub-16" value="" style="edgeStyle=orthogonalEdgeStyle;rounded=0;orthogonalLoop=1;jettySize=auto;html=1;" edge="1" parent="1" source="Yv0FGjkAjLU4at8jHfub-10" target="Yv0FGjkAjLU4at8jHfub-12">
          <mxGeometry relative="1" as="geometry" />
        </mxCell>
        <mxCell id="Yv0FGjkAjLU4at8jHfub-10" value="FATURA PEDIDO" style="rounded=0;whiteSpace=wrap;html=1;" vertex="1" parent="1">
          <mxGeometry x="320" y="-20" width="120" height="60" as="geometry" />
        </mxCell>
        <mxCell id="Yv0FGjkAjLU4at8jHfub-18" value="" style="edgeStyle=orthogonalEdgeStyle;rounded=0;orthogonalLoop=1;jettySize=auto;html=1;" edge="1" parent="1" source="Yv0FGjkAjLU4at8jHfub-11" target="Yv0FGjkAjLU4at8jHfub-14">
          <mxGeometry relative="1" as="geometry" />
        </mxCell>
        <mxCell id="Yv0FGjkAjLU4at8jHfub-11" value="&lt;font style=&quot;font-size: 11px;&quot;&gt;INFORMA CLIENTE PEDIDO PRONTO PARA RETIRADA E DISPONÍVEL PARA PAGAMENTO&lt;/font&gt;" style="rounded=0;whiteSpace=wrap;html=1;" vertex="1" parent="1">
          <mxGeometry x="320" y="140" width="120" height="80" as="geometry" />
        </mxCell>
        <mxCell id="Yv0FGjkAjLU4at8jHfub-17" value="" style="edgeStyle=orthogonalEdgeStyle;rounded=0;orthogonalLoop=1;jettySize=auto;html=1;" edge="1" parent="1" source="Yv0FGjkAjLU4at8jHfub-12" target="Yv0FGjkAjLU4at8jHfub-11">
          <mxGeometry relative="1" as="geometry" />
        </mxCell>
        <mxCell id="Yv0FGjkAjLU4at8jHfub-12" value="PEDIDO PRONTO PARA RETIRADA" style="rounded=0;whiteSpace=wrap;html=1;" vertex="1" parent="1">
          <mxGeometry x="320" y="60" width="120" height="60" as="geometry" />
        </mxCell>
        <mxCell id="Yv0FGjkAjLU4at8jHfub-19" value="" style="edgeStyle=orthogonalEdgeStyle;rounded=0;orthogonalLoop=1;jettySize=auto;html=1;" edge="1" parent="1" source="Yv0FGjkAjLU4at8jHfub-13" target="Yv0FGjkAjLU4at8jHfub-15">
          <mxGeometry relative="1" as="geometry" />
        </mxCell>
        <mxCell id="Yv0FGjkAjLU4at8jHfub-13" value="CLIENTE REALIZOU PAGAMENTO DA FATURA" style="rounded=0;whiteSpace=wrap;html=1;" vertex="1" parent="1">
          <mxGeometry x="320" y="240" width="120" height="60" as="geometry" />
        </mxCell>
        <mxCell id="Yv0FGjkAjLU4at8jHfub-14" value="CLIENTE RETIRA PEDIDO" style="rounded=0;whiteSpace=wrap;html=1;" vertex="1" parent="1">
          <mxGeometry x="320" y="320" width="120" height="60" as="geometry" />
        </mxCell>
        <mxCell id="Yv0FGjkAjLU4at8jHfub-15" value="BAIXA DO PEDIDO" style="rounded=0;whiteSpace=wrap;html=1;" vertex="1" parent="1">
          <mxGeometry x="320" y="395" width="120" height="60" as="geometry" />
        </mxCell>
      </root>
    </mxGraphModel>
  </diagram>
</mxfile>
